<svg id="Layer_1" data-name="Layer 1" xmlns="http://www.w3.org/2000/svg" xmlns:xlink="http://www.w3.org/1999/xlink" viewBox="0 0 299.4 284.54"><defs><style>.cls-1{fill:#004751;}.cls-2{fill:#80cec8;}.cls-3{fill:url(#linear-gradient);}.cls-4{fill:url(#linear-gradient-2);}.cls-5{fill:url(#linear-gradient-3);}.cls-6{fill:url(#linear-gradient-4);}</style><linearGradient id="linear-gradient" x1="339.5" y1="148.89" x2="120.56" y2="131.3" gradientUnits="userSpaceOnUse"><stop offset="0" stop-color="#80cec8"/><stop offset="0.11" stop-color="#92d5d0"/><stop offset="0.49" stop-color="#cdece9"/><stop offset="0.78" stop-color="#f1faf9"/><stop offset="0.93" stop-color="#fff"/></linearGradient><linearGradient id="linear-gradient-2" x1="203.49" y1="157.8" x2="280.49" y2="71.03" gradientUnits="userSpaceOnUse"><stop offset="0.15" stop-color="#004751"/><stop offset="0.18" stop-color="#0b4f59"/><stop offset="0.4" stop-color="#618d93"/><stop offset="0.6" stop-color="#a5bec1"/><stop offset="0.76" stop-color="#d6e1e3"/><stop offset="0.88" stop-color="#f4f7f7"/><stop offset="0.95" stop-color="#fff"/></linearGradient><linearGradient id="linear-gradient-3" x1="57.62" y1="35.37" x2="330.91" y2="157.81" gradientUnits="userSpaceOnUse"><stop offset="0" stop-color="#80cec8"/><stop offset="0.09" stop-color="#77c4c0"/><stop offset="0.23" stop-color="#5faba9"/><stop offset="0.42" stop-color="#378184"/><stop offset="0.63" stop-color="#004751"/><stop offset="0.68" stop-color="#095159"/><stop offset="0.77" stop-color="#226b70"/><stop offset="0.87" stop-color="#4a9595"/><stop offset="1" stop-color="#80cec8"/></linearGradient><linearGradient id="linear-gradient-4" x1="120.12" y1="153.32" x2="312.18" y2="153.32" gradientUnits="userSpaceOnUse"><stop offset="0" stop-color="#80cec8"/><stop offset="0.14" stop-color="#7ac8c3"/><stop offset="0.32" stop-color="#6ab6b3"/><stop offset="0.53" stop-color="#4e9a9a"/><stop offset="0.77" stop-color="#297277"/><stop offset="0.98" stop-color="#004751"/></linearGradient></defs><title>Atorus_Logo_Screen</title><path class="cls-1" d="M55.89,321.24l3.82,6.12,3.76-6.12h2.17l-5,7.85v5.68h-2v-5.68l-5-7.85Z" transform="translate(-53.57 -53.56)"/><path class="cls-1" d="M71.17,324.64a9,9,0,0,1,2.1.22,3.05,3.05,0,0,1,1.41.76,3.15,3.15,0,0,1,.81,1.45,8.43,8.43,0,0,1,.26,2.27v1a8.49,8.49,0,0,1-.26,2.27,3.16,3.16,0,0,1-.81,1.44,3,3,0,0,1-1.41.77,9.07,9.07,0,0,1-2.1.21,9,9,0,0,1-2.1-.21,3,3,0,0,1-1.42-.77,3.24,3.24,0,0,1-.8-1.44,8.1,8.1,0,0,1-.26-2.27v-1a8,8,0,0,1,.26-2.27,3.23,3.23,0,0,1,.8-1.45,3.09,3.09,0,0,1,1.42-.76A8.9,8.9,0,0,1,71.17,324.64Zm2.54,4.7a9.8,9.8,0,0,0-.1-1.61,1.91,1.91,0,0,0-.38-.92,1.31,1.31,0,0,0-.77-.43,8.37,8.37,0,0,0-2.58,0,1.31,1.31,0,0,0-.77.43,1.82,1.82,0,0,0-.38.92,9.62,9.62,0,0,0-.11,1.61v1a9.71,9.71,0,0,0,.11,1.61,1.9,1.9,0,0,0,.38.92,1.3,1.3,0,0,0,.77.42,7.62,7.62,0,0,0,2.58,0,1.3,1.3,0,0,0,.77-.42,2,2,0,0,0,.38-.92,9.88,9.88,0,0,0,.1-1.61Z" transform="translate(-53.57 -53.56)"/><path class="cls-1" d="M84.11,335.07a5.85,5.85,0,0,1-3.23-.72,2.73,2.73,0,0,1-1.09-2.47V325h2v6.53a5.17,5.17,0,0,0,.06.84,1.11,1.11,0,0,0,.28.61,1.5,1.5,0,0,0,.69.37,5.41,5.41,0,0,0,1.29.12,5.23,5.23,0,0,0,1.27-.12,1.51,1.51,0,0,0,.68-.37,1.12,1.12,0,0,0,.29-.61,5.17,5.17,0,0,0,.06-.84V325h2v6.93a2.74,2.74,0,0,1-1.08,2.47A5.85,5.85,0,0,1,84.11,335.07Z" transform="translate(-53.57 -53.56)"/><path class="cls-1" d="M92.67,334.77V328a3.51,3.51,0,0,1,.27-1.45,2.51,2.51,0,0,1,.75-1,3,3,0,0,1,1.17-.54,6.49,6.49,0,0,1,1.52-.17h1.41l.81,0-.34,1.65H96.57a3.57,3.57,0,0,0-1,.12,1.11,1.11,0,0,0-.57.38,1.16,1.16,0,0,0-.24.6,6.68,6.68,0,0,0,0,.82v6.29Z" transform="translate(-53.57 -53.56)"/><path class="cls-1" d="M110.72,328.69a12.77,12.77,0,0,0,.16,2.19,2.68,2.68,0,0,0,.55,1.32,2,2,0,0,0,1.09.65,7.82,7.82,0,0,0,1.78.17h1.54c.54,0,1.21,0,2,0l-.36,1.79c-.69,0-1.32,0-1.9,0H114.3a9.23,9.23,0,0,1-2.73-.34,3.79,3.79,0,0,1-1.75-1.05,4.09,4.09,0,0,1-.92-1.89,12.85,12.85,0,0,1-.27-2.84V327.3a11.94,11.94,0,0,1,.3-2.91,4.23,4.23,0,0,1,1-1.89,3.58,3.58,0,0,1,1.74-1,10,10,0,0,1,2.65-.3h1.5c.54,0,1.2,0,2,0l-.36,1.79h-.69l-.83,0h-1.62a8.65,8.65,0,0,0-1.79.15,1.89,1.89,0,0,0-1.07.62,2.67,2.67,0,0,0-.52,1.31,14.62,14.62,0,0,0-.14,2.23Z" transform="translate(-53.57 -53.56)"/><path class="cls-1" d="M125.75,324.64a8.9,8.9,0,0,1,2.1.22,3.09,3.09,0,0,1,1.42.76,3.15,3.15,0,0,1,.81,1.45,8.48,8.48,0,0,1,.25,2.27v1a8.53,8.53,0,0,1-.25,2.27,3.16,3.16,0,0,1-.81,1.44,3,3,0,0,1-1.42.77,9,9,0,0,1-2.1.21,9.07,9.07,0,0,1-2.1-.21,3,3,0,0,1-1.41-.77,3.16,3.16,0,0,1-.81-1.44,8.49,8.49,0,0,1-.26-2.27v-1a8.43,8.43,0,0,1,.26-2.27,3.15,3.15,0,0,1,.81-1.45,3.11,3.11,0,0,1,1.41-.76A9,9,0,0,1,125.75,324.64Zm2.55,4.7a11.06,11.06,0,0,0-.1-1.61,1.91,1.91,0,0,0-.38-.92,1.34,1.34,0,0,0-.77-.43,8.44,8.44,0,0,0-2.59,0,1.34,1.34,0,0,0-.77.43,1.91,1.91,0,0,0-.38.92,9.8,9.8,0,0,0-.1,1.61v1a9.88,9.88,0,0,0,.1,1.61,2,2,0,0,0,.38.92,1.33,1.33,0,0,0,.77.42,7.68,7.68,0,0,0,2.59,0,1.33,1.33,0,0,0,.77-.42,2,2,0,0,0,.38-.92,11.16,11.16,0,0,0,.1-1.61Z" transform="translate(-53.57 -53.56)"/><path class="cls-1" d="M134.38,334.77v-6.94a2.85,2.85,0,0,1,1-2.47,5,5,0,0,1,3-.72,5.09,5.09,0,0,1,1.79.3,2.41,2.41,0,0,1,1.17.8,2.5,2.5,0,0,1,1.18-.8,6.06,6.06,0,0,1,4.75.42,2.85,2.85,0,0,1,1,2.47v6.94h-2v-6.54a6.73,6.73,0,0,0-.05-.83,1.2,1.2,0,0,0-.25-.61,1.14,1.14,0,0,0-.59-.37,3.86,3.86,0,0,0-1.09-.12,4.11,4.11,0,0,0-1,.1,1.33,1.33,0,0,0-.59.32,1.08,1.08,0,0,0-.27.53,3.14,3.14,0,0,0-.07.72v6.8h-2v-6.54a6.73,6.73,0,0,0-.05-.83,1.12,1.12,0,0,0-.25-.61,1.14,1.14,0,0,0-.59-.37,5,5,0,0,0-2.17,0,1.1,1.1,0,0,0-.59.37,1.19,1.19,0,0,0-.24.61,6.73,6.73,0,0,0,0,.83v6.54Z" transform="translate(-53.57 -53.56)"/><path class="cls-1" d="M157.05,324.64a8.75,8.75,0,0,1,2.07.22,2.91,2.91,0,0,1,1.39.77,3.16,3.16,0,0,1,.79,1.47,9,9,0,0,1,.25,2.33v.86a10.28,10.28,0,0,1-.2,2.15,3.29,3.29,0,0,1-.7,1.48,3,3,0,0,1-1.38.87,7.37,7.37,0,0,1-2.24.28,4.7,4.7,0,0,1-1.51-.21,3,3,0,0,1-1-.57v3.8h-2v-8.75a8.51,8.51,0,0,1,.26-2.26,3.16,3.16,0,0,1,.81-1.44,3.12,3.12,0,0,1,1.41-.77A8.16,8.16,0,0,1,157.05,324.64Zm0,8.8a6.2,6.2,0,0,0,1.28-.11,1.35,1.35,0,0,0,.76-.46,2,2,0,0,0,.36-1,11.65,11.65,0,0,0,.09-1.62v-.86a11.74,11.74,0,0,0-.1-1.66,1.93,1.93,0,0,0-.37-.95,1.32,1.32,0,0,0-.76-.44,6.16,6.16,0,0,0-1.26-.1,6.29,6.29,0,0,0-1.26.1,1.36,1.36,0,0,0-.78.43,1.82,1.82,0,0,0-.39.92,11.06,11.06,0,0,0-.1,1.61v1.34a7.2,7.2,0,0,0,.11,1.37,1.82,1.82,0,0,0,.4.85,1.49,1.49,0,0,0,.78.43A6.05,6.05,0,0,0,157,333.44Z" transform="translate(-53.57 -53.56)"/><path class="cls-1" d="M165.6,320.65h2v14.12h-2Z" transform="translate(-53.57 -53.56)"/><path class="cls-1" d="M173.63,330.59a7.47,7.47,0,0,0,.09,1.29,1.56,1.56,0,0,0,.34.78,1.33,1.33,0,0,0,.71.39,5.74,5.74,0,0,0,1.22.1h1.39l2.2,0-.34,1.65-1,0H176a6.44,6.44,0,0,1-2.2-.32,3,3,0,0,1-1.33-.89,3.13,3.13,0,0,1-.65-1.4,8.79,8.79,0,0,1-.17-1.84V329.3a9.66,9.66,0,0,1,.18-1.95,3.38,3.38,0,0,1,.66-1.46,3.09,3.09,0,0,1,1.35-.92,6.44,6.44,0,0,1,2.25-.33,6,6,0,0,1,2.08.3,3.09,3.09,0,0,1,1.28.8,2.61,2.61,0,0,1,.63,1.15,5.13,5.13,0,0,1,.18,1.36v.29a6.11,6.11,0,0,1-.08,1.08,1.37,1.37,0,0,1-.25.62.74.74,0,0,1-.43.28,2.18,2.18,0,0,1-.61.07Zm2.36-4.37a5.64,5.64,0,0,0-1.22.11,1.32,1.32,0,0,0-.71.43,1.83,1.83,0,0,0-.34.87,9,9,0,0,0-.09,1.42h4.73v-.65a4.5,4.5,0,0,0-.1-1,1.3,1.3,0,0,0-.38-.67,1.57,1.57,0,0,0-.73-.36A5.38,5.38,0,0,0,176,326.22Z" transform="translate(-53.57 -53.56)"/><path class="cls-1" d="M184.25,322.63l2-.36V325h3.61l-.34,1.65h-3.27v4.56a7.22,7.22,0,0,0,.06,1,1.19,1.19,0,0,0,.26.6,1,1,0,0,0,.54.29,4.6,4.6,0,0,0,.91.07h1.72l-.34,1.62H188a8.7,8.7,0,0,1-1.87-.17A2.54,2.54,0,0,1,185,334a2.13,2.13,0,0,1-.58-1.09,7.46,7.46,0,0,1-.17-1.71Z" transform="translate(-53.57 -53.56)"/><path class="cls-1" d="M195.18,330.59a8.84,8.84,0,0,0,.08,1.29,1.57,1.57,0,0,0,.35.78,1.3,1.3,0,0,0,.71.39,5.63,5.63,0,0,0,1.21.1h1.4l2.2,0-.35,1.65-1,0h-2.25a6.34,6.34,0,0,1-2.19-.32,3,3,0,0,1-1.33-.89,3.25,3.25,0,0,1-.66-1.4,9.52,9.52,0,0,1-.17-1.84V329.3a9.66,9.66,0,0,1,.18-1.95,3.39,3.39,0,0,1,.67-1.46,3,3,0,0,1,1.35-.92,6.4,6.4,0,0,1,2.25-.33,6.06,6.06,0,0,1,2.08.3,3,3,0,0,1,1.27.8,2.63,2.63,0,0,1,.64,1.15,5.57,5.57,0,0,1,.17,1.36v.29a6.11,6.11,0,0,1-.08,1.08,1.49,1.49,0,0,1-.24.62.81.81,0,0,1-.43.28,2.25,2.25,0,0,1-.62.07Zm2.35-4.37a5.54,5.54,0,0,0-1.21.11,1.28,1.28,0,0,0-.71.43,1.83,1.83,0,0,0-.35.87,10.69,10.69,0,0,0-.08,1.42h4.73v-.65a4,4,0,0,0-.11-1,1.18,1.18,0,0,0-.38-.67,1.52,1.52,0,0,0-.73-.36A5.31,5.31,0,0,0,197.53,326.22Z" transform="translate(-53.57 -53.56)"/><path class="cls-1" d="M212.89,321.24h4.9a9,9,0,0,1,2.81.38,4.21,4.21,0,0,1,1.8,1.13,4.37,4.37,0,0,1,.95,1.87,11.26,11.26,0,0,1,.27,2.61v1.54a11.29,11.29,0,0,1-.27,2.62,4.37,4.37,0,0,1-.95,1.87,4.12,4.12,0,0,1-1.8,1.13,9,9,0,0,1-2.81.38h-4.9Zm2,11.74h2.91a7.46,7.46,0,0,0,1.75-.17,2.28,2.28,0,0,0,1.16-.64,2.9,2.9,0,0,0,.63-1.33,10.22,10.22,0,0,0,.2-2.21v-1.27a10.09,10.09,0,0,0-.2-2.21,2.86,2.86,0,0,0-.63-1.32,2.27,2.27,0,0,0-1.16-.63,7.46,7.46,0,0,0-1.75-.17h-2.91Z" transform="translate(-53.57 -53.56)"/><path class="cls-1" d="M235.92,333.14a1.62,1.62,0,0,1-.42,1.27,2.4,2.4,0,0,1-1.52.36h-2.85a4.41,4.41,0,0,1-2.86-.73,2.71,2.71,0,0,1-.87-2.2v-.41a2.63,2.63,0,0,1,.94-2.28,5,5,0,0,1,2.94-.69,6.9,6.9,0,0,1,1.78.18,3.15,3.15,0,0,1,.95.39v-.57a5.13,5.13,0,0,0-.06-.83,1,1,0,0,0-.33-.58,1.71,1.71,0,0,0-.74-.37,5.7,5.7,0,0,0-1.32-.12h-1.7l-1.55,0,.37-1.65c.35,0,.79,0,1.31,0h1.57a5.41,5.41,0,0,1,3.33.81,2.85,2.85,0,0,1,1,2.38Zm-6.66-1.32a1.24,1.24,0,0,0,.4,1,2.41,2.41,0,0,0,1.47.33H234v-1.74a2.38,2.38,0,0,0-.07-.63.74.74,0,0,0-.31-.43,1.73,1.73,0,0,0-.66-.24,7.24,7.24,0,0,0-1.16-.07h-.44a5.94,5.94,0,0,0-1,.07,1.71,1.71,0,0,0-.65.22.83.83,0,0,0-.33.43,2.1,2.1,0,0,0-.1.67Z" transform="translate(-53.57 -53.56)"/><path class="cls-1" d="M240.19,322.63l2-.36V325h3.61l-.34,1.65h-3.27v4.56a7,7,0,0,0,.07,1,1.11,1.11,0,0,0,.26.6.94.94,0,0,0,.54.29,4.43,4.43,0,0,0,.9.07h1.73l-.34,1.62H244a8.7,8.7,0,0,1-1.87-.17,2.49,2.49,0,0,1-1.16-.58,2.14,2.14,0,0,1-.59-1.09,7.52,7.52,0,0,1-.16-1.71Z" transform="translate(-53.57 -53.56)"/><path class="cls-1" d="M257.52,333.14a1.62,1.62,0,0,1-.42,1.27,2.4,2.4,0,0,1-1.52.36h-2.85a4.42,4.42,0,0,1-2.86-.73,2.71,2.71,0,0,1-.87-2.2v-.41a2.61,2.61,0,0,1,.95-2.28,5,5,0,0,1,2.93-.69,7,7,0,0,1,1.79.18,3.39,3.39,0,0,1,1,.39v-.57a5,5,0,0,0-.07-.83,1,1,0,0,0-.32-.58,1.77,1.77,0,0,0-.74-.37,5.81,5.81,0,0,0-1.32-.12h-1.7l-1.55,0,.36-1.65c.35,0,.79,0,1.31,0h1.58a5.38,5.38,0,0,1,3.32.81,2.85,2.85,0,0,1,1,2.38Zm-6.65-1.32a1.21,1.21,0,0,0,.4,1,2.35,2.35,0,0,0,1.46.33h2.89v-1.74a2.35,2.35,0,0,0-.08-.63.77.77,0,0,0-.3-.43,1.85,1.85,0,0,0-.67-.24,7.24,7.24,0,0,0-1.16-.07H253a6,6,0,0,0-1,.07,1.71,1.71,0,0,0-.65.22.94.94,0,0,0-.33.43,2.13,2.13,0,0,0-.09.67Z" transform="translate(-53.57 -53.56)"/><path class="cls-1" d="M274.67,327.23a6.16,6.16,0,0,1,1.5.42,2.75,2.75,0,0,1,1,.72,2.65,2.65,0,0,1,.54,1,6,6,0,0,1,.16,1.43v.32a4.84,4.84,0,0,1-.25,1.6,2.54,2.54,0,0,1-.84,1.14,4,4,0,0,1-1.55.68,11,11,0,0,1-2.42.23h-1.72c-.75,0-1.72,0-2.89,0l.34-1.79,1.34,0h2.93a12.61,12.61,0,0,0,1.53-.08,2.3,2.3,0,0,0,.94-.31,1.06,1.06,0,0,0,.47-.59,3.07,3.07,0,0,0,.12-.94,4.79,4.79,0,0,0-.06-.83,1.35,1.35,0,0,0-.27-.58,1.41,1.41,0,0,0-.58-.39,5.7,5.7,0,0,0-1-.27l-2.56-.42a5.94,5.94,0,0,1-1.57-.44,3,3,0,0,1-1-.72,2.56,2.56,0,0,1-.48-1,5.87,5.87,0,0,1-.14-1.32v-.36a4.07,4.07,0,0,1,.26-1.48,2.68,2.68,0,0,1,.84-1.12,4.05,4.05,0,0,1,1.52-.71,9.45,9.45,0,0,1,2.32-.25h2.92l1.36,0-.34,1.79c-.9,0-1.67,0-2.3,0H273a8.53,8.53,0,0,0-1.37.09,1.89,1.89,0,0,0-.86.3,1.07,1.07,0,0,0-.43.57,3.1,3.1,0,0,0-.11.88,3.46,3.46,0,0,0,.07.78,1.21,1.21,0,0,0,.25.55,1.45,1.45,0,0,0,.55.38,4.16,4.16,0,0,0,.95.25Z" transform="translate(-53.57 -53.56)"/><path class="cls-1" d="M286,324.64a9,9,0,0,1,2.1.22,3.05,3.05,0,0,1,1.41.76,3.15,3.15,0,0,1,.81,1.45,8.43,8.43,0,0,1,.26,2.27v1a8.49,8.49,0,0,1-.26,2.27,3.16,3.16,0,0,1-.81,1.44,3,3,0,0,1-1.41.77,10.6,10.6,0,0,1-4.2,0,3,3,0,0,1-1.42-.77,3.24,3.24,0,0,1-.8-1.44,8.49,8.49,0,0,1-.26-2.27v-1a8.43,8.43,0,0,1,.26-2.27,3.23,3.23,0,0,1,.8-1.45,3.09,3.09,0,0,1,1.42-.76A9,9,0,0,1,286,324.64Zm2.54,4.7a9.8,9.8,0,0,0-.1-1.61,1.91,1.91,0,0,0-.38-.92,1.31,1.31,0,0,0-.77-.43,8.37,8.37,0,0,0-2.58,0,1.31,1.31,0,0,0-.77.43,1.82,1.82,0,0,0-.38.92,9.62,9.62,0,0,0-.11,1.61v1a9.71,9.71,0,0,0,.11,1.61,1.9,1.9,0,0,0,.38.92,1.3,1.3,0,0,0,.77.42,7.62,7.62,0,0,0,2.58,0,1.3,1.3,0,0,0,.77-.42,2,2,0,0,0,.38-.92,9.88,9.88,0,0,0,.1-1.61Z" transform="translate(-53.57 -53.56)"/><path class="cls-1" d="M294.6,320.65h2v14.12h-2Z" transform="translate(-53.57 -53.56)"/><path class="cls-1" d="M305.19,335.07a5.88,5.88,0,0,1-3.23-.72,2.75,2.75,0,0,1-1.09-2.47V325h2v6.53a5.17,5.17,0,0,0,.06.84,1.11,1.11,0,0,0,.28.61,1.49,1.49,0,0,0,.7.37,6.83,6.83,0,0,0,2.55,0,1.51,1.51,0,0,0,.68-.37,1.12,1.12,0,0,0,.29-.61,5.17,5.17,0,0,0,.06-.84V325h2v6.93a2.74,2.74,0,0,1-1.08,2.47A5.82,5.82,0,0,1,305.19,335.07Z" transform="translate(-53.57 -53.56)"/><path class="cls-1" d="M313.76,322.63l2-.36V325h3.61L319,326.6h-3.27v4.56a5.86,5.86,0,0,0,.07,1,1.19,1.19,0,0,0,.25.6,1,1,0,0,0,.55.29,4.43,4.43,0,0,0,.9.07h1.73l-.34,1.62h-1.37a8.64,8.64,0,0,1-1.87-.17,2.49,2.49,0,0,1-1.16-.58,2.14,2.14,0,0,1-.59-1.09,7.52,7.52,0,0,1-.16-1.71Z" transform="translate(-53.57 -53.56)"/><path class="cls-1" d="M325.16,322a1.38,1.38,0,0,1-2.22,1,1.73,1.73,0,0,1,0-1.92,1.27,1.27,0,0,1,2.22,1ZM322.91,325h2v9.82h-2Z" transform="translate(-53.57 -53.56)"/><path class="cls-1" d="M333.54,324.64a8.87,8.87,0,0,1,2.09.22,3.09,3.09,0,0,1,1.42.76,3.15,3.15,0,0,1,.81,1.45,8.48,8.48,0,0,1,.25,2.27v1a8.53,8.53,0,0,1-.25,2.27,3.16,3.16,0,0,1-.81,1.44,3,3,0,0,1-1.42.77,10.56,10.56,0,0,1-4.19,0,3,3,0,0,1-1.42-.77,3.16,3.16,0,0,1-.81-1.44,8.53,8.53,0,0,1-.25-2.27v-1a8.48,8.48,0,0,1,.25-2.27,3.15,3.15,0,0,1,.81-1.45,3.09,3.09,0,0,1,1.42-.76A8.9,8.9,0,0,1,333.54,324.64Zm2.54,4.7a9.8,9.8,0,0,0-.1-1.61,1.91,1.91,0,0,0-.38-.92,1.34,1.34,0,0,0-.77-.43,8.44,8.44,0,0,0-2.59,0,1.34,1.34,0,0,0-.77.43,1.91,1.91,0,0,0-.38.92,9.8,9.8,0,0,0-.1,1.61v1a9.88,9.88,0,0,0,.1,1.61,2,2,0,0,0,.38.92,1.33,1.33,0,0,0,.77.42,7.68,7.68,0,0,0,2.59,0,1.33,1.33,0,0,0,.77-.42A2,2,0,0,0,336,332a9.88,9.88,0,0,0,.1-1.61Z" transform="translate(-53.57 -53.56)"/><path class="cls-1" d="M342.16,334.77v-6.94a2.79,2.79,0,0,1,1-2.45,7.73,7.73,0,0,1,6.6,0,2.79,2.79,0,0,1,1.05,2.45v6.94h-2v-6.54a5.13,5.13,0,0,0-.06-.83,1.15,1.15,0,0,0-.28-.61,1.41,1.41,0,0,0-.71-.37,5.54,5.54,0,0,0-1.31-.12,5.6,5.6,0,0,0-1.31.12,1.33,1.33,0,0,0-.7.37,1.16,1.16,0,0,0-.29.61,5.21,5.21,0,0,0,0,.83v6.54Z" transform="translate(-53.57 -53.56)"/><path class="cls-2" d="M101.1,286q0,5.4-2.45,7.49c-1.63,1.4-4.45,2.09-8.47,2.09H73.56q-10.92,0-15.45-4.07t-4.54-11.73v-2.25q0-8.46,5-12.29t15.6-3.82a37.52,37.52,0,0,1,8.82.86,17.93,17.93,0,0,1,5.26,2v-1.84a15.77,15.77,0,0,0-.57-4.59,5.77,5.77,0,0,0-1.88-2.9,7.81,7.81,0,0,0-3.62-1.48,34.09,34.09,0,0,0-5.77-.41H72.13c-1.57,0-3.15,0-4.74.05l-4.75.1c-1.56,0-3,.06-4.28.06l2.14-10.71c1.9-.07,4.29-.12,7.14-.16s6,0,9.39,0q12.43,0,18.25,4.39t5.82,13.77Zm-12.85,0v-8.27a11.66,11.66,0,0,0-.36-3.11,3.82,3.82,0,0,0-1.48-2.09,7.69,7.69,0,0,0-3.16-1.17,32.4,32.4,0,0,0-5.41-.36H76.31q-5.81,0-7.85,1.43c-1.36.95-2,2.69-2,5.2v1.94a6,6,0,0,0,1.89,4.85q1.88,1.57,7,1.58Z" transform="translate(-53.57 -53.56)"/><path class="cls-1" d="M141.53,295.57h-8.26a50.19,50.19,0,0,1-10.56-.91,13.45,13.45,0,0,1-6.53-3.22,12.13,12.13,0,0,1-3.31-6.17,42.43,42.43,0,0,1-.92-9.69V230.19l13.26-2.14v14.49h19.07l-2.14,10.91H125.21v21.42a28.28,28.28,0,0,0,.36,5,6,6,0,0,0,1.32,3,4.84,4.84,0,0,0,2.75,1.42,23.66,23.66,0,0,0,4.54.36h9.49Z" transform="translate(-53.57 -53.56)"/><path class="cls-1" d="M175.9,240.9a47.49,47.49,0,0,1,11.63,1.23,17.34,17.34,0,0,1,7.85,4.13,16.78,16.78,0,0,1,4.44,7.8,46,46,0,0,1,1.37,12.24v5.51a46,46,0,0,1-1.37,12.24,16.78,16.78,0,0,1-4.44,7.8,17.34,17.34,0,0,1-7.85,4.13,47.49,47.49,0,0,1-11.63,1.23A48,48,0,0,1,164.17,296a17.29,17.29,0,0,1-7.85-4.13,16.78,16.78,0,0,1-4.44-7.8,45.93,45.93,0,0,1-1.38-12.24V266.3a45.93,45.93,0,0,1,1.38-12.24,16.78,16.78,0,0,1,4.44-7.8,17.29,17.29,0,0,1,7.85-4.13A48,48,0,0,1,175.9,240.9Zm11.83,25.2a45.64,45.64,0,0,0-.51-7.6,9.41,9.41,0,0,0-1.78-4.44,6.24,6.24,0,0,0-3.57-2,28.42,28.42,0,0,0-6-.51,29.21,29.21,0,0,0-6,.51,6.28,6.28,0,0,0-3.62,2,9.41,9.41,0,0,0-1.78,4.44,44.58,44.58,0,0,0-.51,7.6v6a43.63,43.63,0,0,0,.51,7.55,9.33,9.33,0,0,0,1.78,4.39,6.28,6.28,0,0,0,3.62,2,29.21,29.21,0,0,0,6,.51,28.42,28.42,0,0,0,6-.51,6.24,6.24,0,0,0,3.57-2,9.33,9.33,0,0,0,1.78-4.39,44.66,44.66,0,0,0,.51-7.55Z" transform="translate(-53.57 -53.56)"/><path class="cls-1" d="M224.25,295.57H211V260.69a23,23,0,0,1,1.42-8.62,13.45,13.45,0,0,1,4.18-5.66,17.7,17.7,0,0,1,6.74-3.11,38.77,38.77,0,0,1,9.08-1H239c1.84,0,3.64,0,5.41.1l-2.14,11c-1.36-.07-2.86-.12-4.49-.15s-3-.05-4.08-.05a16.68,16.68,0,0,0-5.1.61,6.23,6.23,0,0,0-2.85,1.78,5.53,5.53,0,0,0-1.28,3,30.45,30.45,0,0,0-.25,4.23Z" transform="translate(-53.57 -53.56)"/><path class="cls-1" d="M274.43,297.21a51.89,51.89,0,0,1-10.66-1,19.72,19.72,0,0,1-7.55-3.16,13,13,0,0,1-4.44-5.71,23.38,23.38,0,0,1-1.43-8.73v-36.1h13.26v34.37a23.21,23.21,0,0,0,.31,4.08,5.58,5.58,0,0,0,1.38,2.91,6.79,6.79,0,0,0,3.26,1.78,22.53,22.53,0,0,0,5.87.61,21.93,21.93,0,0,0,5.81-.61,6.75,6.75,0,0,0,3.21-1.78,5.58,5.58,0,0,0,1.38-2.91,24.31,24.31,0,0,0,.3-4.08V242.54h13.26v36.1q0,10.31-5.86,14.44T274.43,297.21Z" transform="translate(-53.57 -53.56)"/><path class="cls-1" d="M337.66,263.45a23.22,23.22,0,0,1,7.6,1.78,12.88,12.88,0,0,1,4.69,3.42,11.67,11.67,0,0,1,2.35,4.59,20.65,20.65,0,0,1,.66,5.2V280q0,7.75-5.4,11.78t-16.83,4H320.17c-2.07,0-4.2,0-6.37,0s-4.29-.09-6.33-.16l2-10.81q5.21.11,11.12.16t10.61.05c3.4,0,5.73-.37,7-1.13a4.22,4.22,0,0,0,1.89-4,4.81,4.81,0,0,0-1.17-3.47c-.78-.82-2.54-1.36-5.25-1.63l-11.22-.92a19.52,19.52,0,0,1-6.79-1.63,14.29,14.29,0,0,1-4.59-3.32,11.77,11.77,0,0,1-2.55-4.49,17.78,17.78,0,0,1-.76-5.25v-1.53q0-7.24,5-11.27t16.67-4c2.93,0,6.12,0,9.59,0l12.85.16-2,10.81-7.85-.16c-2.25,0-4.2-.05-5.87-.05h-7.8c-3,0-5.07.33-6.22,1a3.58,3.58,0,0,0-1.74,3.42A4.42,4.42,0,0,0,321.5,261q1.17,1.07,5.45,1.47Z" transform="translate(-53.57 -53.56)"/><path class="cls-3" d="M146.11,110.77c29.57-34,62.11-20.62,78-10.17,22.05,14.49,31.16,51.05,17,72.84l3-2.26c12.46-20.49,16-52.5-5.54-80.63-19.46-25.39-67.26-38.17-108.4,5.68a70.47,70.47,0,0,0-5.3,6.35,83.31,83.31,0,0,0,31.24,101.27C127.23,182.19,121.66,138.89,146.11,110.77Z" transform="translate(-53.57 -53.56)"/><path class="cls-4" d="M254.32,161.24c-26.67,31.24-63.88,22.54-78.48,10.23s-30.15-45.56,1.83-70.45c-37.23,19.6-35.47,58.43-15.76,81.57,18.61,21.84,65.65,35.87,108.38-6.8a55.94,55.94,0,0,0,13.79-23.23,80.25,80.25,0,0,0,1.11-26.72c-4.77-38-35.41-66.67-72.74-71.54C260.56,65.52,279.71,131.5,254.32,161.24Z" transform="translate(-53.57 -53.56)"/><path class="cls-5" d="M130.22,96.23c41.14-43.85,88.94-31.07,108.4-5.68,21.4,27.92,18,59.67,5.81,80.18a67.35,67.35,0,0,0,9.89-9.49c25.39-29.74,6.24-95.72-41.87-106.94a87.7,87.7,0,0,0-22.32-.06,86.75,86.75,0,0,0-47.51,21.6,83.73,83.73,0,0,0-17.7,26.74A68.84,68.84,0,0,1,130.22,96.23Z" transform="translate(-53.57 -53.56)"/><path class="cls-6" d="M270.29,175.79c-42.73,42.67-89.77,28.64-108.38,6.8-19.71-23.14-21.47-62,15.76-81.57l-.36.29c.18-.12.36-.25.54-.36,19.13-12,45-5.64,60.1,13.89a48.43,48.43,0,0,0-13.82-14.24c-15.91-10.45-48.45-23.84-78,10.17a62.81,62.81,0,0,0-13.62,26.38,65.28,65.28,0,0,0,11.78,55c7.38,9.5,17.47,16.12,28.61,20.44a80.43,80.43,0,0,0,29.35,5c38.58,0,72.14-23.15,81.85-65.09C281.29,159.65,275.69,170.41,270.29,175.79Z" transform="translate(-53.57 -53.56)"/></svg>